<mxfile host="app.diagrams.net" modified="2020-12-17T07:58:18.800Z" agent="5.0 (Macintosh; Intel Mac OS X 11_1_0) AppleWebKit/537.36 (KHTML, like Gecko) Chrome/87.0.4280.88 Safari/537.36" etag="HEe3PDDiWi8n19o69Dc_" version="14.0.4" type="github">
  <diagram id="QXPwMjI13hE76wAvdr3B" name="Page-1">
    <mxGraphModel dx="3515" dy="2862" grid="1" gridSize="10" guides="1" tooltips="1" connect="1" arrows="1" fold="1" page="1" pageScale="1" pageWidth="827" pageHeight="1169" math="0" shadow="0">
      <root>
        <mxCell id="0" />
        <mxCell id="1" parent="0" />
        <mxCell id="FFDAhcYH0aImvpFplqTn-25" value="" style="edgeStyle=orthogonalEdgeStyle;rounded=0;orthogonalLoop=1;jettySize=auto;html=1;" edge="1" parent="1" source="FFDAhcYH0aImvpFplqTn-1" target="FFDAhcYH0aImvpFplqTn-3">
          <mxGeometry relative="1" as="geometry" />
        </mxCell>
        <mxCell id="FFDAhcYH0aImvpFplqTn-1" value="菜单功能演示系统&amp;nbsp;" style="rounded=0;whiteSpace=wrap;html=1;" vertex="1" parent="1">
          <mxGeometry x="60" y="500" width="110" height="50" as="geometry" />
        </mxCell>
        <mxCell id="FFDAhcYH0aImvpFplqTn-26" value="" style="edgeStyle=orthogonalEdgeStyle;rounded=0;orthogonalLoop=1;jettySize=auto;html=1;" edge="1" parent="1" source="FFDAhcYH0aImvpFplqTn-3" target="FFDAhcYH0aImvpFplqTn-4">
          <mxGeometry relative="1" as="geometry" />
        </mxCell>
        <mxCell id="FFDAhcYH0aImvpFplqTn-3" value="输入数字选择功能" style="rounded=0;whiteSpace=wrap;html=1;" vertex="1" parent="1">
          <mxGeometry x="200" y="500" width="110" height="50" as="geometry" />
        </mxCell>
        <mxCell id="FFDAhcYH0aImvpFplqTn-27" value="" style="edgeStyle=orthogonalEdgeStyle;rounded=0;orthogonalLoop=1;jettySize=auto;html=1;" edge="1" parent="1" source="FFDAhcYH0aImvpFplqTn-4" target="FFDAhcYH0aImvpFplqTn-5">
          <mxGeometry relative="1" as="geometry" />
        </mxCell>
        <mxCell id="FFDAhcYH0aImvpFplqTn-29" style="edgeStyle=orthogonalEdgeStyle;rounded=0;orthogonalLoop=1;jettySize=auto;html=1;exitX=0.5;exitY=0;exitDx=0;exitDy=0;entryX=0.5;entryY=0;entryDx=0;entryDy=0;" edge="1" parent="1" source="FFDAhcYH0aImvpFplqTn-4" target="FFDAhcYH0aImvpFplqTn-3">
          <mxGeometry relative="1" as="geometry" />
        </mxCell>
        <mxCell id="FFDAhcYH0aImvpFplqTn-30" style="edgeStyle=orthogonalEdgeStyle;rounded=0;orthogonalLoop=1;jettySize=auto;html=1;exitX=0.5;exitY=1;exitDx=0;exitDy=0;entryX=0.5;entryY=0;entryDx=0;entryDy=0;" edge="1" parent="1" source="FFDAhcYH0aImvpFplqTn-4" target="FFDAhcYH0aImvpFplqTn-6">
          <mxGeometry relative="1" as="geometry" />
        </mxCell>
        <mxCell id="FFDAhcYH0aImvpFplqTn-4" value="输入操作的线性表的序号" style="rounded=0;whiteSpace=wrap;html=1;" vertex="1" parent="1">
          <mxGeometry x="360" y="500" width="110" height="50" as="geometry" />
        </mxCell>
        <mxCell id="FFDAhcYH0aImvpFplqTn-28" value="" style="edgeStyle=orthogonalEdgeStyle;rounded=0;orthogonalLoop=1;jettySize=auto;html=1;" edge="1" parent="1" source="FFDAhcYH0aImvpFplqTn-5" target="FFDAhcYH0aImvpFplqTn-15">
          <mxGeometry relative="1" as="geometry">
            <Array as="points">
              <mxPoint x="685" y="525" />
              <mxPoint x="685" y="560" />
            </Array>
          </mxGeometry>
        </mxCell>
        <mxCell id="FFDAhcYH0aImvpFplqTn-31" style="edgeStyle=orthogonalEdgeStyle;rounded=0;orthogonalLoop=1;jettySize=auto;html=1;exitX=1;exitY=0.5;exitDx=0;exitDy=0;entryX=0;entryY=0.5;entryDx=0;entryDy=0;" edge="1" parent="1" source="FFDAhcYH0aImvpFplqTn-5" target="FFDAhcYH0aImvpFplqTn-14">
          <mxGeometry relative="1" as="geometry" />
        </mxCell>
        <mxCell id="FFDAhcYH0aImvpFplqTn-32" style="edgeStyle=orthogonalEdgeStyle;rounded=0;orthogonalLoop=1;jettySize=auto;html=1;exitX=1;exitY=0.5;exitDx=0;exitDy=0;entryX=0;entryY=0.5;entryDx=0;entryDy=0;" edge="1" parent="1" source="FFDAhcYH0aImvpFplqTn-5" target="FFDAhcYH0aImvpFplqTn-12">
          <mxGeometry relative="1" as="geometry" />
        </mxCell>
        <mxCell id="FFDAhcYH0aImvpFplqTn-33" style="edgeStyle=orthogonalEdgeStyle;rounded=0;orthogonalLoop=1;jettySize=auto;html=1;exitX=1;exitY=0.5;exitDx=0;exitDy=0;entryX=0;entryY=0.5;entryDx=0;entryDy=0;" edge="1" parent="1" source="FFDAhcYH0aImvpFplqTn-5" target="FFDAhcYH0aImvpFplqTn-16">
          <mxGeometry relative="1" as="geometry" />
        </mxCell>
        <mxCell id="FFDAhcYH0aImvpFplqTn-34" style="edgeStyle=orthogonalEdgeStyle;rounded=0;orthogonalLoop=1;jettySize=auto;html=1;exitX=1;exitY=0.5;exitDx=0;exitDy=0;entryX=0;entryY=0.5;entryDx=0;entryDy=0;" edge="1" parent="1" source="FFDAhcYH0aImvpFplqTn-5" target="FFDAhcYH0aImvpFplqTn-11">
          <mxGeometry relative="1" as="geometry" />
        </mxCell>
        <mxCell id="FFDAhcYH0aImvpFplqTn-35" style="edgeStyle=orthogonalEdgeStyle;rounded=0;orthogonalLoop=1;jettySize=auto;html=1;exitX=1;exitY=0.5;exitDx=0;exitDy=0;entryX=0;entryY=0.5;entryDx=0;entryDy=0;" edge="1" parent="1" source="FFDAhcYH0aImvpFplqTn-5" target="FFDAhcYH0aImvpFplqTn-10">
          <mxGeometry relative="1" as="geometry" />
        </mxCell>
        <mxCell id="FFDAhcYH0aImvpFplqTn-36" style="edgeStyle=orthogonalEdgeStyle;rounded=0;orthogonalLoop=1;jettySize=auto;html=1;exitX=1;exitY=0.5;exitDx=0;exitDy=0;entryX=0;entryY=0.5;entryDx=0;entryDy=0;" edge="1" parent="1" source="FFDAhcYH0aImvpFplqTn-5" target="FFDAhcYH0aImvpFplqTn-9">
          <mxGeometry relative="1" as="geometry" />
        </mxCell>
        <mxCell id="FFDAhcYH0aImvpFplqTn-37" style="edgeStyle=orthogonalEdgeStyle;rounded=0;orthogonalLoop=1;jettySize=auto;html=1;exitX=1;exitY=0.5;exitDx=0;exitDy=0;entryX=0;entryY=0.5;entryDx=0;entryDy=0;" edge="1" parent="1" source="FFDAhcYH0aImvpFplqTn-5" target="FFDAhcYH0aImvpFplqTn-8">
          <mxGeometry relative="1" as="geometry" />
        </mxCell>
        <mxCell id="FFDAhcYH0aImvpFplqTn-38" style="edgeStyle=orthogonalEdgeStyle;rounded=0;orthogonalLoop=1;jettySize=auto;html=1;exitX=1;exitY=0.5;exitDx=0;exitDy=0;entryX=0;entryY=0.5;entryDx=0;entryDy=0;" edge="1" parent="1" source="FFDAhcYH0aImvpFplqTn-5" target="FFDAhcYH0aImvpFplqTn-13">
          <mxGeometry relative="1" as="geometry" />
        </mxCell>
        <mxCell id="FFDAhcYH0aImvpFplqTn-39" style="edgeStyle=orthogonalEdgeStyle;rounded=0;orthogonalLoop=1;jettySize=auto;html=1;exitX=1;exitY=0.5;exitDx=0;exitDy=0;entryX=0;entryY=0.5;entryDx=0;entryDy=0;" edge="1" parent="1" source="FFDAhcYH0aImvpFplqTn-5" target="FFDAhcYH0aImvpFplqTn-7">
          <mxGeometry relative="1" as="geometry" />
        </mxCell>
        <mxCell id="FFDAhcYH0aImvpFplqTn-40" style="edgeStyle=orthogonalEdgeStyle;rounded=0;orthogonalLoop=1;jettySize=auto;html=1;exitX=1;exitY=0.5;exitDx=0;exitDy=0;entryX=0;entryY=0.75;entryDx=0;entryDy=0;" edge="1" parent="1" source="FFDAhcYH0aImvpFplqTn-5" target="FFDAhcYH0aImvpFplqTn-17">
          <mxGeometry relative="1" as="geometry" />
        </mxCell>
        <mxCell id="FFDAhcYH0aImvpFplqTn-41" style="edgeStyle=orthogonalEdgeStyle;rounded=0;orthogonalLoop=1;jettySize=auto;html=1;exitX=1;exitY=0.5;exitDx=0;exitDy=0;entryX=0;entryY=0.5;entryDx=0;entryDy=0;" edge="1" parent="1" source="FFDAhcYH0aImvpFplqTn-5" target="FFDAhcYH0aImvpFplqTn-18">
          <mxGeometry relative="1" as="geometry" />
        </mxCell>
        <mxCell id="FFDAhcYH0aImvpFplqTn-42" style="edgeStyle=orthogonalEdgeStyle;rounded=0;orthogonalLoop=1;jettySize=auto;html=1;exitX=1;exitY=0.5;exitDx=0;exitDy=0;entryX=0;entryY=0.5;entryDx=0;entryDy=0;" edge="1" parent="1" source="FFDAhcYH0aImvpFplqTn-5" target="FFDAhcYH0aImvpFplqTn-19">
          <mxGeometry relative="1" as="geometry" />
        </mxCell>
        <mxCell id="FFDAhcYH0aImvpFplqTn-43" style="edgeStyle=orthogonalEdgeStyle;rounded=0;orthogonalLoop=1;jettySize=auto;html=1;exitX=1;exitY=0.5;exitDx=0;exitDy=0;entryX=0;entryY=0.75;entryDx=0;entryDy=0;" edge="1" parent="1" source="FFDAhcYH0aImvpFplqTn-5" target="FFDAhcYH0aImvpFplqTn-20">
          <mxGeometry relative="1" as="geometry" />
        </mxCell>
        <mxCell id="FFDAhcYH0aImvpFplqTn-44" style="edgeStyle=orthogonalEdgeStyle;rounded=0;orthogonalLoop=1;jettySize=auto;html=1;exitX=1;exitY=0.5;exitDx=0;exitDy=0;entryX=0;entryY=0.5;entryDx=0;entryDy=0;" edge="1" parent="1" source="FFDAhcYH0aImvpFplqTn-5" target="FFDAhcYH0aImvpFplqTn-21">
          <mxGeometry relative="1" as="geometry" />
        </mxCell>
        <mxCell id="FFDAhcYH0aImvpFplqTn-45" style="edgeStyle=orthogonalEdgeStyle;rounded=0;orthogonalLoop=1;jettySize=auto;html=1;exitX=1;exitY=0.5;exitDx=0;exitDy=0;entryX=0;entryY=0.5;entryDx=0;entryDy=0;" edge="1" parent="1" source="FFDAhcYH0aImvpFplqTn-5" target="FFDAhcYH0aImvpFplqTn-22">
          <mxGeometry relative="1" as="geometry" />
        </mxCell>
        <mxCell id="FFDAhcYH0aImvpFplqTn-46" style="edgeStyle=orthogonalEdgeStyle;rounded=0;orthogonalLoop=1;jettySize=auto;html=1;exitX=1;exitY=0.5;exitDx=0;exitDy=0;entryX=0;entryY=0.5;entryDx=0;entryDy=0;" edge="1" parent="1" source="FFDAhcYH0aImvpFplqTn-5" target="FFDAhcYH0aImvpFplqTn-23">
          <mxGeometry relative="1" as="geometry" />
        </mxCell>
        <mxCell id="FFDAhcYH0aImvpFplqTn-5" value="菜单功能演示系统&amp;nbsp;" style="rounded=0;whiteSpace=wrap;html=1;" vertex="1" parent="1">
          <mxGeometry x="520" y="500" width="110" height="50" as="geometry" />
        </mxCell>
        <mxCell id="FFDAhcYH0aImvpFplqTn-6" value="退出系统" style="rounded=0;whiteSpace=wrap;html=1;" vertex="1" parent="1">
          <mxGeometry x="360" y="690" width="110" height="50" as="geometry" />
        </mxCell>
        <mxCell id="FFDAhcYH0aImvpFplqTn-7" value="1初始化表" style="rounded=0;whiteSpace=wrap;html=1;" vertex="1" parent="1">
          <mxGeometry x="740" y="-30" width="110" height="50" as="geometry" />
        </mxCell>
        <mxCell id="FFDAhcYH0aImvpFplqTn-8" value="2销毁表" style="rounded=0;whiteSpace=wrap;html=1;" vertex="1" parent="1">
          <mxGeometry x="740" y="40" width="110" height="50" as="geometry" />
        </mxCell>
        <mxCell id="FFDAhcYH0aImvpFplqTn-9" value="3清空表" style="rounded=0;whiteSpace=wrap;html=1;" vertex="1" parent="1">
          <mxGeometry x="740" y="110" width="110" height="50" as="geometry" />
        </mxCell>
        <mxCell id="FFDAhcYH0aImvpFplqTn-10" value="4判断空表" style="rounded=0;whiteSpace=wrap;html=1;" vertex="1" parent="1">
          <mxGeometry x="740" y="180" width="110" height="50" as="geometry" />
        </mxCell>
        <mxCell id="FFDAhcYH0aImvpFplqTn-11" value="5求表长" style="rounded=0;whiteSpace=wrap;html=1;" vertex="1" parent="1">
          <mxGeometry x="740" y="250" width="110" height="50" as="geometry" />
        </mxCell>
        <mxCell id="FFDAhcYH0aImvpFplqTn-12" value="6获得元素" style="rounded=0;whiteSpace=wrap;html=1;" vertex="1" parent="1">
          <mxGeometry x="740" y="320" width="110" height="50" as="geometry" />
        </mxCell>
        <mxCell id="FFDAhcYH0aImvpFplqTn-13" value="7查找元素" style="rounded=0;whiteSpace=wrap;html=1;" vertex="1" parent="1">
          <mxGeometry x="740" y="390" width="110" height="50" as="geometry" />
        </mxCell>
        <mxCell id="FFDAhcYH0aImvpFplqTn-14" value="8获得前驱" style="rounded=0;whiteSpace=wrap;html=1;" vertex="1" parent="1">
          <mxGeometry x="740" y="460" width="110" height="50" as="geometry" />
        </mxCell>
        <mxCell id="FFDAhcYH0aImvpFplqTn-15" value="9获得后继" style="rounded=0;whiteSpace=wrap;html=1;" vertex="1" parent="1">
          <mxGeometry x="740" y="535" width="110" height="50" as="geometry" />
        </mxCell>
        <mxCell id="FFDAhcYH0aImvpFplqTn-16" value="10插入元素" style="rounded=0;whiteSpace=wrap;html=1;" vertex="1" parent="1">
          <mxGeometry x="740" y="610" width="110" height="50" as="geometry" />
        </mxCell>
        <mxCell id="FFDAhcYH0aImvpFplqTn-17" value="11删除元素" style="rounded=0;whiteSpace=wrap;html=1;" vertex="1" parent="1">
          <mxGeometry x="740" y="690" width="110" height="50" as="geometry" />
        </mxCell>
        <mxCell id="FFDAhcYH0aImvpFplqTn-18" value="12遍历表" style="rounded=0;whiteSpace=wrap;html=1;" vertex="1" parent="1">
          <mxGeometry x="740" y="760" width="110" height="50" as="geometry" />
        </mxCell>
        <mxCell id="FFDAhcYH0aImvpFplqTn-19" value="13设置编号" style="rounded=0;whiteSpace=wrap;html=1;" vertex="1" parent="1">
          <mxGeometry x="740" y="830" width="110" height="50" as="geometry" />
        </mxCell>
        <mxCell id="FFDAhcYH0aImvpFplqTn-20" value="21建立多项式" style="rounded=0;whiteSpace=wrap;html=1;" vertex="1" parent="1">
          <mxGeometry x="740" y="900" width="110" height="50" as="geometry" />
        </mxCell>
        <mxCell id="FFDAhcYH0aImvpFplqTn-21" value="22输入多项式" style="rounded=0;whiteSpace=wrap;html=1;" vertex="1" parent="1">
          <mxGeometry x="740" y="970" width="110" height="50" as="geometry" />
        </mxCell>
        <mxCell id="FFDAhcYH0aImvpFplqTn-22" value="23多项式相加" style="rounded=0;whiteSpace=wrap;html=1;" vertex="1" parent="1">
          <mxGeometry x="740" y="1040" width="110" height="50" as="geometry" />
        </mxCell>
        <mxCell id="FFDAhcYH0aImvpFplqTn-23" value="24多项式相减" style="rounded=0;whiteSpace=wrap;html=1;" vertex="1" parent="1">
          <mxGeometry x="740" y="1110" width="110" height="50" as="geometry" />
        </mxCell>
      </root>
    </mxGraphModel>
  </diagram>
</mxfile>
